<svg width="110" height="60" viewBox="0 0 110 60" fill="none" xmlns="http://www.w3.org/2000/svg">
<g clip-path="url(#clip0_466_7925)">
<rect width="110" height="60" fill="white"/>
<path fill-rule="evenodd" clip-rule="evenodd" d="M0 0H110V60H0V0Z" fill="white"/>
<path fill-rule="evenodd" clip-rule="evenodd" d="M45.9981 26.84L33.9782 27.2715L45.3913 27.9108L45.9981 26.84ZM44.5603 29.386L32.5119 29.8181L43.9674 30.4596L44.5603 29.386ZM43.1225 31.9534L31.0892 32.3793L42.5307 33.0203L43.1225 31.9534ZM41.7143 34.5079L29.6659 34.9405L41.0941 35.5804L41.7143 34.5079ZM56.4428 13.9889L41.1013 14.5392L56.4864 15.4011L56.4428 13.9889ZM56.3456 11.4621L42.5637 11.9493L56.3892 12.7486L56.3456 11.4621ZM56.2472 9.02478L43.968 9.43203L56.3065 10.1226L56.2472 9.02478ZM56.1645 6.52272L45.4013 6.88547L56.207 7.52873L56.1645 6.52272ZM56.0947 4.5H46.7335L56.1087 5.00131L56.0947 4.5ZM40.2626 37.0612L28.2432 37.5H40.0172L40.2626 37.0612Z" fill="#32313A"/>
<path fill-rule="evenodd" clip-rule="evenodd" d="M81.6439 4.5H63.9109L63.4081 5.39081L72.282 5.86197C72.3861 5.86197 72.3861 6.00968 72.2374 6.00968L62.8909 6.32226L61.9894 7.90121L70.8026 8.42219C70.9211 8.43707 70.8919 8.59966 70.7883 8.59966L61.4264 8.90767L60.5552 10.4196L69.3542 10.9085C69.5464 10.9234 69.5464 11.0866 69.3542 11.0866L60.0077 11.4146L59.1204 12.9959L67.8902 13.4991C68.0825 13.514 68.0682 13.6915 67.8902 13.6915L58.5438 14.0247L57.6411 15.5864L66.4252 16.0748C66.5579 16.0897 66.5739 16.2528 66.396 16.2528L39.4648 17.1557L65.0207 18.5766C65.1826 18.5766 65.1683 18.7838 64.9904 18.7838L38.0157 19.7462L63.5717 21.1666C63.6901 21.1666 63.7193 21.3589 63.5414 21.3589L36.522 22.3356L62.078 23.7566C62.1821 23.7715 62.2845 23.9638 62.0637 23.9787L35.0873 24.9393L60.6427 26.3597C60.7165 26.3746 60.7903 26.567 60.6135 26.567L47.0367 27.0513L47.0813 28.2776L59.1788 28.9503C59.2669 28.9652 59.3115 29.1426 59.1485 29.1426L47.1259 29.5703L47.1848 30.942L57.6857 31.5259C57.7887 31.5408 57.8333 31.7481 57.6554 31.7481L47.2437 32.1139L47.2889 33.619L56.2366 34.1165C56.3396 34.1308 56.3694 34.3232 56.192 34.3232L47.3336 34.6398L47.3925 36.2954L54.787 36.7065C54.8911 36.7214 54.8911 36.8994 54.743 36.8994L47.4222 37.1645L47.452 37.8761H71.3221C77.6514 37.8761 83.3298 33.2583 84.395 29.5875C85.4607 25.9172 85.4607 22.6018 80.3728 20.9445C83.2131 20.2929 88.1517 17.0875 89.1283 12.6558C90.0138 8.62943 88.5356 4.51488 81.6439 4.5ZM69.6373 30.2052H62.3023L66.4429 22.864H71.8856C77.5056 22.864 74.7837 30.2052 69.6373 30.2052ZM79.1314 14.4563C78.8945 15.3443 77.1188 17.5942 74.8723 17.5942H69.4297L72.9193 11.4375H75.7001C79.2486 11.556 79.3671 13.5689 79.1314 14.4563ZM108.513 48.5137C108.513 45.6689 106.15 43.2862 103.308 43.2862C100.391 43.2862 98.0102 45.7067 98.0102 48.6803C98.0072 49.3798 98.1427 50.0729 98.4089 50.7197C98.675 51.3664 99.0665 51.9541 99.5607 52.4487C100.055 52.9432 100.642 53.3349 101.289 53.6012C101.935 53.8675 102.627 54.003 103.326 54C105.485 54 107.534 52.5223 108.143 50.5089H105.448C104.913 51.3584 104.213 51.746 103.251 51.746C102.034 51.746 100.945 50.9147 100.594 49.7325H108.383C108.476 49.1606 108.513 48.883 108.513 48.5137ZM100.521 47.8015C100.872 46.4161 101.979 45.5293 103.345 45.5293C104.711 45.5293 105.782 46.3977 106.114 47.8015H100.521ZM73.5222 43.7791V44.6087C72.7477 43.7774 71.6253 43.3045 70.4251 43.3045C67.7673 43.3045 65.5013 45.5762 65.5013 48.532C65.5013 51.3207 67.5058 53.8219 70.4777 53.8219C71.7883 53.8219 72.7849 53.519 73.7259 52.4479V53.7595H75.9787V43.7791H73.5222ZM70.7712 51.7065C69.9503 51.7065 69.163 51.3802 68.5826 50.7993C68.0021 50.2184 67.676 49.4305 67.676 48.609C67.676 47.7875 68.0021 46.9996 68.5826 46.4187C69.163 45.8379 69.9503 45.5115 70.7712 45.5115C71.5921 45.5115 72.3793 45.8379 72.9598 46.4187C73.5403 46.9996 73.8663 47.7875 73.8663 48.609C73.8663 49.4305 73.5403 50.2184 72.9598 50.7993C72.3793 51.3802 71.5921 51.7065 70.7712 51.7065ZM6.39639 43.2856C5.38154 43.2856 4.60639 43.6366 3.75687 44.5051V43.5261H1.48633V53.7595H3.94164V48.9379C3.94164 47.6269 4.05205 45.539 5.86093 45.539C7.55883 45.539 7.74361 47.4969 7.74361 48.753V53.7589H10.1983V48.2727C10.1983 46.8317 10.0879 46.1487 9.70008 45.3358C9.12801 44.1169 7.78079 43.2856 6.39639 43.2856ZM21.65 48.5137C21.65 45.6689 19.2874 43.2862 16.4448 43.2862C13.5284 43.2862 11.1474 45.7067 11.1474 48.6803C11.1445 49.3797 11.2801 50.0727 11.5462 50.7194C11.8123 51.3661 12.2037 51.9537 12.6979 52.4483C13.1921 52.9428 13.7792 53.3346 14.4255 53.6009C15.0717 53.8672 15.7642 54.0028 16.4631 54C18.6226 54 20.6712 52.5223 21.2804 50.5089H18.586C18.0506 51.3584 17.3492 51.746 16.3893 51.746C15.1713 51.746 14.0821 50.9147 13.7314 49.7325H21.5201C21.6134 49.1606 21.65 48.883 21.65 48.5137ZM13.6582 47.8015C14.0089 46.4161 15.1164 45.5293 16.4825 45.5293C17.8486 45.5293 18.919 46.3977 19.2513 47.8015H13.6582ZM62.0408 53.7509H64.4956V40.1003H62.0408V53.7509ZM82.4551 43.2856C81.4397 43.2856 80.6639 43.6366 79.815 44.5051V43.5261H77.5445V53.7595H80.0003V48.9379C80.0003 47.6269 80.1108 45.539 81.9196 45.539C83.617 45.539 83.8023 47.4969 83.8023 48.753V53.7589H86.257V48.2727C86.257 46.8317 86.1466 46.1487 85.7588 45.3358C85.1867 44.1169 83.8395 43.2856 82.4551 43.2856ZM92.385 45.5396C93.5103 45.5396 94.1562 45.9094 94.766 46.9433H97.5337C96.7774 44.7455 94.8398 43.2856 92.4766 43.2856C89.4864 43.2856 87.0865 45.6684 87.0865 48.6059C87.0865 51.5611 89.5047 53.9994 92.4766 53.9994C93.2346 53.9954 93.9835 53.8341 94.676 53.5257C95.3686 53.2172 95.9896 52.7684 96.4999 52.2075C97.0171 51.635 97.2019 51.3023 97.5337 50.3978H94.766C94.1928 51.284 93.4554 51.7454 92.5326 51.7454C90.8153 51.7454 89.5424 50.4155 89.5424 48.6419C89.5424 46.8512 90.7604 45.5396 92.385 45.5396ZM31.0331 49.7698L29.2945 43.5267H27.3192L25.5618 49.7698L23.4835 43.5267H21.3176L24.7317 53.7595H26.3043L28.298 47.1288L30.2356 53.7595H31.886L35.16 43.5267H33.1303L31.0331 49.7698ZM44.1855 43.2965C42.9858 43.2965 41.8634 43.7694 41.0883 44.6001V40.1008H38.633V53.7509H40.8846V52.4399C41.8263 53.511 42.8228 53.8133 44.1334 53.8133C47.1053 53.8133 49.1098 51.3126 49.1098 48.5234C49.1104 45.5682 46.8439 43.2965 44.1855 43.2965ZM43.8394 51.7065C43.0185 51.7065 42.2312 51.3802 41.6507 50.7993C41.0703 50.2184 40.7442 49.4305 40.7442 48.609C40.7442 47.7875 41.0703 46.9996 41.6507 46.4187C42.2312 45.8379 43.0185 45.5115 43.8394 45.5115C44.6603 45.5115 45.4475 45.8379 46.028 46.4187C46.6084 46.9996 46.9345 47.7875 46.9345 48.609C46.9345 49.4305 46.6084 50.2184 46.028 50.7993C45.4475 51.3802 44.6603 51.7065 43.8394 51.7065ZM57.9454 43.7791V44.6087C57.1703 43.7774 56.0484 43.3045 54.8482 43.3045C52.1904 43.3045 49.9233 45.5762 49.9233 48.532C49.9233 51.3207 51.9284 53.8219 54.8997 53.8219C56.2103 53.8219 57.2069 53.519 58.1485 52.4479V53.7595H60.4002V43.7791H57.9454ZM55.1949 51.7065C54.374 51.7065 53.5868 51.3802 53.0063 50.7993C52.4258 50.2184 52.0997 49.4305 52.0997 48.609C52.0997 47.7875 52.4258 46.9996 53.0063 46.4187C53.5868 45.8379 54.374 45.5115 55.1949 45.5115C56.0158 45.5115 56.8031 45.8379 57.3835 46.4187C57.964 46.9996 58.2901 47.7875 58.2901 48.609C58.2901 49.4305 57.964 50.2184 57.3835 50.7993C56.8031 51.3802 56.0158 51.7065 55.1949 51.7065Z" fill="#32313A"/>
</g>
<defs>
<clipPath id="clip0_466_7925">
<rect width="110" height="60" fill="white"/>
</clipPath>
</defs>
</svg>
